<svg xmlns="http://www.w3.org/2000/svg" viewBox="0 0 262.32 158.35"><defs><style>.cls-1{fill:#0f1c2c;}.cls-2{fill:#fff;}.cls-3{fill:#00baf2;}</style></defs><g id="Capa_2" data-name="Capa 2"><g id="White"><path class="cls-1" d="M141,70.46H83.16V91.89H119a37.42,37.42,0,1,1-5-31.81h24.05A58.09,58.09,0,1,0,141,70.46Z"/><ellipse class="cls-2" cx="83.03" cy="81.18" rx="37.58" ry="36.65"/><path class="cls-3" d="M179.59,20.34A58.68,58.68,0,0,0,138,37.58a69.4,69.4,0,0,1,9.3,16.78L148.74,58a37.41,37.41,0,1,1-.07,42.15A69,69,0,0,1,138,120.75,58.82,58.82,0,1,0,179.59,20.34Z"/><path class="cls-3" d="M183.15,158.35h-104A79.18,79.18,0,0,1,79.17,0h104a79.18,79.18,0,0,1,0,158.35ZM79.17,8.57a70.61,70.61,0,0,0,0,141.21h104a70.61,70.61,0,0,0,0-141.21Z"/></g></g></svg>